{"title":"Yamla Pagla Deewana 2 2013 Hindi Movies HD DVDRip XviD ESubs New","uid":8668966,"size":720612573,"categoryP":"video","categoryS":"movies","magnet":"?xt=urn:btih:5dc3242c8d7bc45818e5be133a0340c7f01fcc7c&amp;dn=Yamla+Pagla+Deewana+2+2013+Hindi+Movies+HD+DVDRip+XviD+ESubs+New&amp;tr=udp%3A%2F%2Ftracker.openbittorrent.com%3A80&amp;tr=udp%3A%2F%2Fopen.demonii.com%3A1337&amp;tr=udp%3A%2F%2Ftracker.coppersurfer.tk%3A6969&amp;tr=udp%3A%2F%2Fexodus.desync.com%3A6969","seeders":4,"leechers":1,"uploader":"basicssom","files":3,"time":1373464349,"description":"Yamla Pagla Deewana 2 2013 Hindi Movies HD DVDRip XviD ESubs New Source Sample Included ~ \n\nâ˜»rDXâ˜»\n\nScreen Shots :\n &lt;a href=&quot;\nhttp://myimghosting.serveftp.com/13/YamlaPaglaDeewana2HD.html&quot; rel=&quot;nofollow&quot; target=&quot;_NEW&quot;&gt;\nhttp://myimghosting.serveftp.com/13/YamlaPaglaDeewana2HD.html&lt;/a&gt;\n &lt;a href=&quot;\nhttp://myimghost.cwahi.net/YamlaPaglaDeewana2HD.html&quot; rel=&quot;nofollow&quot; target=&quot;_NEW&quot;&gt;\nhttp://myimghost.cwahi.net/YamlaPaglaDeewana2HD.html&lt;/a&gt;\n &lt;a href=&quot;\nhttp://users2.jabry.com/myimghost/YamlaPaglaDeewana2/YamlaPaglaDeewana2.jpg&quot; rel=&quot;nofollow&quot; target=&quot;_NEW&quot;&gt;\nhttp://users2.jabry.com/myimghost/YamlaPaglaDeewana2/YamlaPaglaDeewana2.jpg&lt;/a&gt;\n &lt;a href=&quot;\nhttp://users2.jabry.com/myimghost/YamlaPaglaDeewana2/YamlaPaglaDeewana21.jpg&quot; rel=&quot;nofollow&quot; target=&quot;_NEW&quot;&gt;\nhttp://users2.jabry.com/myimghost/YamlaPaglaDeewana2/YamlaPaglaDeewana21.jpg&lt;/a&gt;\n\nFormat                                   : AVI\nFormat/Info                              : Audio Video Interleave\nFile size                                : 671 MiB\nDuration                                 : 2h 31mn\nOverall bit rate mode                    : Variable\nOverall bit rate                         : 619 Kbps\nWriting library                          : MPlayer\n\nVideo\nID                                       : 0\nFormat                                   : MPEG-4 Visual\nFormat profile                           : Advanced Simple@L5\nFormat settings, BVOP                    : 1\nFormat settings, QPel                    : No\nFormat settings, GMC                     : No warppoints\nFormat settings, Matrix                  : Custom\nCodec ID                                 : XVID\nCodec ID/Hint                            : XviD\nDuration                                 : 2h 31mn\nBit rate                                 : 516 Kbps\nWidth                                    : 608 pixels\nHeight                                   : 256 pixels\nDisplay aspect ratio                     : 2.40:1\nFrame rate                               : 23.976 fps\nColor space                              : YUV\nChroma subsampling                       : 4:2:0\nBit depth                                : 8 bits\nScan type                                : Progressive\nCompression mode                         : Lossy\nBits/(Pixel*Frame)                       : 0.138\nStream size                              : 559 MiB (83%)\nWriting library                          : XviD 1.2.1 (UTC 2008-12-04)\n\nAudio\nID                                       : 1\nFormat                                   : MPEG Audio\nFormat version                           : Version 1\nFormat profile                           : Layer 3\nMode                                     : Joint stereo\nMode extension                           : MS Stereo\nCodec ID                                 : 55\nCodec ID/Hint                            : MP3\nDuration                                 : 2h 31mn\nBit rate mode                            : Variable\nBit rate                                 : 96.0 Kbps\nChannel(s)                               : 2 channels\nSampling rate                            : 32.0 KHz\nCompression mode                         : Lossy\nStream size                              : 101 MiB (15%)\nAlignment                                : Aligned on interleaves\nInterleave, duration                     : 36 ms (0.86 video frame)\nInterleave, preload duration             : 210 ms\nWriting library                          : LAME3.99r\nEncoding settings                        : -m j -V 4 -q 2 -lowpass 15.1 --abr 96","torrent":{"xt":"urn:btih:5dc3242c8d7bc45818e5be133a0340c7f01fcc7c","amp;dn":"Yamla+Pagla+Deewana+2+2013+Hindi+Movies+HD+DVDRip+XviD+ESubs+New","amp;tr":["udp%3A%2F%2Ftracker.openbittorrent.com%3A80","udp%3A%2F%2Fopen.demonii.com%3A1337","udp%3A%2F%2Ftracker.coppersurfer.tk%3A6969","udp%3A%2F%2Fexodus.desync.com%3A6969"],"infoHash":"5dc3242c8d7bc45818e5be133a0340c7f01fcc7c","infoHashBuffer":{"type":"Buffer","data":[93,195,36,44,141,123,196,88,24,229,190,19,58,3,64,199,240,31,204,124]},"announce":[],"urlList":[]}}